<?xml version="1.0" standalone="no"?>
<!DOCTYPE svg PUBLIC "-//W3C//DTD SVG 1.1//EN" "http://www.w3.org/Graphics/SVG/1.1/DTD/svg11.dtd" >
<svg xmlns="http://www.w3.org/2000/svg">
<metadata></metadata>
<defs>
<font id="ferro_rossoregular" horiz-adv-x="935" >
<font-face units-per-em="2048" ascent="1638" descent="-410" />
<missing-glyph horiz-adv-x="450" />
<glyph horiz-adv-x="2048" />
<glyph horiz-adv-x="2048" />
<glyph unicode="&#xd;" horiz-adv-x="450" />
<glyph unicode=" "  horiz-adv-x="450" />
<glyph unicode="&#x09;" horiz-adv-x="450" />
<glyph unicode="&#xa0;" horiz-adv-x="450" />
<glyph unicode="!" horiz-adv-x="849" d="M133 1156v191h568v-191h-135v-904h-298v904h-135zM229 90q0 42 53.5 70.5t133.5 28.5q79 0 134 -28.5t55 -70.5q0 -41 -54 -69.5t-135 -28.5q-80 0 -133.5 28.5t-53.5 69.5z" />
<glyph unicode="&#x22;" horiz-adv-x="707" d="M50 972l100 375h190l-100 -375h-190zM330 972l100 375h190l-100 -375h-190z" />
<glyph unicode="#" horiz-adv-x="1039" d="M25 370v159h173v291h-173v159h173v368h159v-368h227v368h159v-368h175v-159h-175v-291h175v-159h-175v-370h-159v370h-227v-370h-159v370h-173zM357 529h227v291h-227v-291z" />
<glyph unicode="$" horiz-adv-x="1065" d="M66 193v224h277v-185q0 -54 47 -54h24v335l-238 102q-110 47 -110 193v237q0 207 226 207h122v123h164v-123l111 1q109 0 172.5 -52.5t63.5 -141.5v-223h-276v185q0 54 -48 54h-23v-332l246 -106q101 -43 101 -193v-236q0 -208 -225 -208h-122v-121h-164v121h-112 q-112 0 -174 51.5t-62 141.5zM342 911q0 -67 72 -97v261h-19q-53 0 -53 -51v-113zM578 178h18q53 0 53 51v112q0 71 -64 98l-7 3v-264z" />
<glyph unicode="%" horiz-adv-x="1012" d="M0 811v325q0 116 138 116h145q135 0 135 -124v-326q0 -115 -141 -115h-142q-135 0 -135 124zM82 0l655 1252h148l-655 -1252h-148zM162 795q0 -30 31 -30h35q29 0 29 31v346q0 32 -27 32h-39q-29 0 -29 -33v-346zM547 125v325q0 116 138 116h145q135 0 135 -124v-326 q0 -115 -141 -115h-142q-135 0 -135 124zM709 109q0 -31 31 -31h35q29 0 29 32v345q0 33 -27 33h-39q-29 0 -29 -34v-345z" />
<glyph unicode="&#x26;" horiz-adv-x="1273" d="M134 207v261q0 105 43 153q24 27 81 44v1q-124 58 -124 212v246q0 223 241 223h441q112 0 177 -56t65 -152v-188h-297v147q0 58 -51 58h-231q-48 0 -48 -58v-149q0 -53 10 -75q15 -29 66 -61l254 -154v54h375v-189h-78v-333h78v-191h-749q-119 0 -186 55t-67 152z M430 466l1 -218q0 -57 52 -57h278v136q0 28 -21 40l-265 164q-45 -6 -45 -65z" />
<glyph unicode="'" horiz-adv-x="462" d="M50 972l100 375h190l-100 -375h-190z" />
<glyph unicode="(" horiz-adv-x="751" d="M8 691q0 289 168 656h425v-191h-196q-116 -257 -116 -463q0 -213 116 -502h196v-191h-425q-168 402 -168 691z" />
<glyph unicode=")" horiz-adv-x="772" d="M107 0v191h196q116 289 116 502q0 206 -116 463h-196v191h425q168 -367 168 -656t-168 -691h-425z" />
<glyph unicode="*" horiz-adv-x="644" d="M58 1114l57 90l130 -79v179h109v-186l126 88l64 -87l-149 -106l135 -139l-78 -74l-151 155l-127 -154l-84 68l123 149z" />
<glyph unicode="+" horiz-adv-x="883" d="M70 550v159h232v232h159v-232h232v-159h-232v-232h-159v232h-232z" />
<glyph unicode="," horiz-adv-x="437" d="M50 -187l100 375h190l-100 -375h-190z" />
<glyph unicode="-" horiz-adv-x="893" d="M80 550v159h623v-159h-623z" />
<glyph unicode="." horiz-adv-x="474" d="M75 100q0 45 44.5 77t110.5 32t111.5 -32t45.5 -77q0 -46 -45 -77.5t-112 -31.5q-66 0 -110.5 32t-44.5 77z" />
<glyph unicode="/" horiz-adv-x="960" d="M7 0l705 1347h246l-705 -1347h-246z" />
<glyph unicode="0" horiz-adv-x="940" d="M0 223v820q0 105 78 161q67 47 170 47h329q243 0 243 -223v-821q0 -96 -69 -151.5t-185 -55.5h-324q-119 0 -182 62q-60 59 -60 161zM297 246q0 -55 56 -55h117q53 0 53 57v754q0 59 -49 59h-125q-52 0 -52 -61v-754z" />
<glyph unicode="1" horiz-adv-x="808" d="M43 0v191h196v870h-196v190h493l1 -1060h196v-191h-690z" />
<glyph unicode="2" horiz-adv-x="940" d="M0 0v321q0 81 34 131q12 17 75 77l337 315q28 26 56 53q21 23 21 52v56q0 56 -56 56h-155q-51 0 -51 -59v-199h-261v241q0 95 68.5 151t185.5 56h324q119 0 182 -62q60 -59 60 -161v-146q0 -80 -37 -130q-6 -8 -81 -77l-336 -316q-69 -64 -69 -105v-63h210q51 0 51 58 v199h261v-240q0 -97 -66.5 -152.5t-186.5 -55.5h-566z" />
<glyph unicode="3" horiz-adv-x="936" d="M1 0l1 374h189v-183h275q52 0 53 57l1 160q0 122 -106 122h-181v192h181q105 0 105 130v150q0 59 -49 59h-280v-185h-189v375h573q242 0 242 -223v-198q0 -157 -148 -204v-1q148 -43 148 -205v-213q0 -96 -68 -151.5t-185 -55.5h-562z" />
<glyph unicode="4" horiz-adv-x="1040" d="M0 410v190l265 461l-142 -1v191h682l1 -1060h169v-191h-638l1 191h169v219h-507zM235 600h272v461h-8z" />
<glyph unicode="5" horiz-adv-x="941" d="M0 208v240h262v-199q0 -58 51 -58h153q57 0 57 55v165q0 78 -69 105l-337 133q-117 46 -117 233v369l821 1v-376h-188l-1 185h-279q-56 0 -56 -56v-56q0 -74 77 -105l337 -133q109 -43 109 -207v-281q0 -223 -243 -223h-323q-120 0 -187 55.5t-67 152.5z" />
<glyph unicode="6" horiz-adv-x="941" d="M0 223v820q0 106 78 161q66 47 170 47h319q254 0 254 -215v-232h-263v200q0 56 -50 57h-159q-52 0 -52 -61v-288h270q117 0 185.5 -56t68.5 -151v-297q0 -96 -68.5 -152t-185.5 -56h-325q-242 0 -242 223zM297 246q0 -55 56 -55h119q51 0 51 58v215q0 57 -50 57h-176 v-275z" />
<glyph unicode="7" horiz-adv-x="967" d="M0 875v375h879v-190h-41l-306 -869h132v-191h-553v191h131l306 869h-357v-185h-191z" />
<glyph unicode="8" horiz-adv-x="971" d="M0 207v213q0 162 148 205v1q-148 47 -148 204v198q0 223 242 223h367q242 0 242 -223v-198q0 -157 -148 -204v-1q148 -43 148 -205v-213q0 -96 -68 -151.5t-186 -55.5h-343q-118 0 -186 55.5t-68 151.5zM298 248q0 -57 52 -57h151q52 0 52 57v160q0 122 -104 122h-47 q-104 0 -104 -122v-160zM298 852q0 -130 104 -130h47q104 0 104 130v150q0 59 -48 59h-159q-48 0 -48 -59v-150z" />
<glyph unicode="9" horiz-adv-x="941" d="M0 215v232h263v-200q0 -56 50 -56h159q52 0 52 60v288h-270q-117 0 -185.5 56t-68.5 151v298q0 95 68.5 151t185.5 56h325q242 0 242 -223v-820q0 -106 -78 -161q-66 -47 -170 -47h-319q-254 0 -254 215zM297 787q0 -57 50 -57h177v275q0 55 -56 55h-119q-52 0 -52 -58 v-215z" />
<glyph unicode=":" horiz-adv-x="437" d="M75 101q0 45 44.5 77t110.5 32t111.5 -32t45.5 -77q0 -46 -45 -77.5t-112 -31.5q-66 0 -110.5 32t-44.5 77zM75 628q0 45 44.5 77t110.5 32t111.5 -32t45.5 -77q0 -46 -45 -77.5t-112 -31.5q-66 0 -110.5 32t-44.5 77z" />
<glyph unicode=";" horiz-adv-x="437" d="M30 -187l100 375h190l-100 -375h-190zM64 628q0 45 44.5 77t110.5 32t111.5 -32t45.5 -77q0 -46 -45 -77.5t-112 -31.5q-66 0 -110.5 32t-44.5 77z" />
<glyph unicode="&#x3c;" horiz-adv-x="942" d="M11 673l627 500h241v-191h-106l-385 -309l385 -308h106v-191h-241z" />
<glyph unicode="=" horiz-adv-x="883" d="M70 405v159h623v-159h-623zM70 698v159h623v-159h-623z" />
<glyph unicode="&#x3e;" horiz-adv-x="1024" d="M107 174v191h105l386 308l-386 309h-105v191h241l626 -500l-626 -499h-241z" />
<glyph unicode="?" horiz-adv-x="1104" d="M122 863v260q0 103 73.5 163.5t200.5 60.5h350q129 0 197 -67q65 -63 65 -174v-73q0 -66 -17 -106q-10 -25 -49 -81l-291 -418q-67 -95 -67 -154v-27h-329v43q0 88 32 154q12 23 68 104l287 408q45 64 45 107v19q0 59 -61 59h-129q-56 0 -56 -63v-215h-319zM243 98 q0 44 50.5 75.5t125.5 31.5t127 -31.5t52 -75.5q0 -45 -51 -76t-128 -31q-75 0 -125.5 31t-50.5 76z" />
<glyph unicode="@" horiz-adv-x="1391" d="M110 240v882q0 114 84 174q72 51 183 51h597q260 0 260 -240v-779h-677q-73 0 -114 44q-38 40 -38 101v152q0 120 147 120h191v151q0 34 -30 34h-75q-33 0 -33 -32v-97h-200v87q0 138 170 138h217q150 0 150 -141v-425l85 -1v619q0 64 -52 64l-601 -1q-57 0 -57 -64v-812 q0 -59 61 -59h593v-206h-600q-128 0 -197 67q-64 63 -64 173zM605 465q0 -41 40 -41h98v244h-99q-39 0 -39 -34v-169z" />
<glyph unicode="A" horiz-adv-x="1327" d="M0 0v191h135l391 965h-196v191h1012v-191h-588l389 -965h136v-191h-573v191h135l-61 152h-355l-61 -152h135v-191h-499zM503 534h198l-98 246z" />
<glyph unicode="B" horiz-adv-x="1167" d="M0 0v191h196v965h-196v191h835q242 0 242 -223v-246q0 -157 -148 -204v-1q148 -43 148 -205v-261q0 -96 -68 -151.5t-185 -55.5h-824zM494 191h233q52 0 53 57v208q0 122 -105 122h-181v-387zM494 770h181q105 0 105 130v198q0 58 -49 58h-237v-386z" />
<glyph unicode="C" horiz-adv-x="1115" d="M109 223v915q0 106 77 161q67 48 170 48h777v-191h-675q-52 0 -52 -60v-850q0 -55 56 -55h222q51 0 51 58v199h297v-240q0 -96 -68.5 -152t-184.5 -56h-428q-242 0 -242 223z" />
<glyph unicode="D" horiz-adv-x="1182" d="M0 0v191h196v965h-196v191h835q242 0 242 -223v-917q0 -96 -68.5 -151.5t-184.5 -55.5h-824zM494 191h233q53 0 53 57v850q0 58 -49 58h-237v-965z" />
<glyph unicode="E" horiz-adv-x="1224" d="M109 0v191h196v965h-196v191h1133v-191h-639v-381h93v90h143v-358h-143v86h-93v-402h341v184h190v-375h-1025z" />
<glyph unicode="F" horiz-adv-x="940" d="M109 0v191h196v965h-196v191h1025v-191h-531v-381h93v90h143v-358h-143v86h-93v-402h196v-191h-690z" />
<glyph unicode="G" horiz-adv-x="1121" d="M109 223v915q0 106 78 162q66 47 170 47h782v-191h-681q-52 0 -52 -60v-850q0 -55 56 -55h222q51 0 51 58v270l-181 -1v170h478v-480q0 -96 -68.5 -152t-184.5 -56h-428q-242 0 -242 223z" />
<glyph unicode="H" horiz-adv-x="1366" d="M1 0v191h178v965h-178v191h620v-191h-143v-386h342v386h-144v191h707v-191h-265v-965h178v-191h-620v191h144v388h-342v-388h143v-191h-620z" />
<glyph unicode="I" horiz-adv-x="884" d="M107 0v191h196v965h-196v191h690v-191h-196v-965h196v-191h-690z" />
<glyph unicode="J" horiz-adv-x="1039" d="M0 208v240h298l-1 -199q0 -58 52 -58h169q57 0 57 55v910h-178v191h672v-191h-196v-933q0 -102 -60 -161q-63 -62 -182 -62h-377q-117 0 -185.5 56t-68.5 152z" />
<glyph unicode="K" horiz-adv-x="1273" d="M0 0v191h196v965h-196v191h673v-191h-179v-451l322 451h-91v191h566v-191h-234l-305 -451q33 3 63 3q286 0 287 -261v-256h91v-191h-469v191h97l-1 221q0 142 -162 142q-164 0 -164 -143v-220h179v-191h-673z" />
<glyph unicode="L" horiz-adv-x="1110" d="M0 0v191h196v965h-196v191h690v-191h-196v-965h345v184h174v-375h-1013zM772 1156v191h355v-191h-355z" />
<glyph unicode="M" horiz-adv-x="1589" d="M0 0v191h195v965h-195v191h602v-191h-84l240 -486h4l263 486h-196v191h777v-191h-283v-965h179v-191h-673v191h196v532h-7l-317 -584l-289 584h-6v-532h196v-191h-602z" />
<glyph unicode="N" horiz-adv-x="1426" d="M0 0v191h195v965h-195v191h455l400 -642l5 -1v452h-161v191h744v-191h-285v-964l178 -1v-191h-637v191h161l-361 584h-6v-584h153v-191h-646z" />
<glyph unicode="O" horiz-adv-x="1138" d="M109 223v915q0 106 78 161q67 48 170 48h434q242 0 242 -223v-917q0 -96 -68.5 -151.5t-185.5 -55.5h-428q-119 0 -182 62q-60 59 -60 161zM406 246q0 -55 56 -55h222q52 0 52 57v850q0 58 -48 58h-230q-52 0 -52 -60v-850z" />
<glyph unicode="P" horiz-adv-x="1175" d="M0 0v191h196v965h-196v191h835q242 0 242 -223v-333q0 -153 -54 -216q-57 -67 -197 -67h-332v-317h196v-191h-690zM494 700h190q61 0 82 34q14 23 14 79v285q0 58 -58 58h-228v-456z" />
<glyph unicode="Q" horiz-adv-x="1139" d="M109 223v915q0 106 78 162q66 47 170 47h434q242 0 242 -223v-902q0 -83 -40 -139l106 -92l-123 -146l-185 155h-440q-242 0 -242 223zM406 246q0 -55 56 -55l103 1l-99 86l126 144l145 -129l-1 805q0 58 -48 58h-230q-52 0 -52 -60v-850z" />
<glyph unicode="R" horiz-adv-x="1223" d="M0 0v191h196v965h-196v191h835q242 0 242 -223v-290q0 -203 -130 -224v-6q131 0 131 -157v-256h88v-191h-381v460q0 99 -104 99l-187 1v-369h196v-191h-690zM494 753h190q96 0 96 112v233q0 58 -58 58h-228v-403z" />
<glyph unicode="S" horiz-adv-x="1131" d="M109 208v240h298l-1 -199q0 -58 52 -58h221q57 0 57 55v121q0 76 -69 105l-440 190q-118 50 -118 207v255q0 223 243 223h796v-191h-685q-57 0 -57 -55v-121q0 -72 78 -106l440 -189q108 -47 108 -207v-255q0 -102 -59 -161q-64 -62 -183 -62h-427q-120 0 -187 55.5 t-67 152.5z" />
<glyph unicode="T" horiz-adv-x="1110" d="M109 973v374h1112v-191h-405v-965h196v-191h-690v191h196v965h-234v-183h-175z" />
<glyph unicode="U" horiz-adv-x="1174" d="M0 1156v191h573v-191h-137v-907q0 -58 51 -58h213q57 0 57 55v910h-140v191h577v-191h-139v-933q0 -102 -60 -161q-63 -62 -182 -62h-421q-117 0 -185.5 56t-68.5 152l1 948h-139z" />
<glyph unicode="V" horiz-adv-x="1209" d="M0 1156v191h568v-191h-135l240 -589l238 589h-135v191h451v-191h-136l-389 -965h178v-191h-550v191h196l-391 965h-135z" />
<glyph unicode="W" horiz-adv-x="1857" d="M0 1156v191h568v-191h-135l240 -589l238 589h-135v191h451v-191l-136 1l240 -590l238 589h-134v191h450v-191h-135l-389 -965h178v-191h-551v191h196l-241 595l-241 -595h178v-191h-550v191h196l-391 965h-135z" />
<glyph unicode="X" horiz-adv-x="1330" d="M0 0v190h127l345 430l-346 536h-126v191h620v-191h-126l182 -281l226 281h-126v191h573l-1 -191h-231l-345 -430l346 -536h126v-190h-620v190h126l-182 282l-226 -282h126v-190h-468z" />
<glyph unicode="Y" horiz-adv-x="1330" d="M1 1156v191h568v-191h-117l275 -445l277 445h-123v191h467v-191h-135l-388 -628v-337h196v-191h-690v191h196v337l-391 628h-135z" />
<glyph unicode="Z" horiz-adv-x="1278" d="M109 0v191h73l606 965h-488v-184h-190l-1 375h1191v-191h-144l-605 -965h438v184h189v-375h-1069z" />
<glyph unicode="[" horiz-adv-x="708" d="M107 0v1347h494v-191h-196v-965h196v-191h-494z" />
<glyph unicode="\" horiz-adv-x="960" d="M7 1347h246l705 -1347h-246z" />
<glyph unicode="]" horiz-adv-x="708" d="M107 0v191h196v965h-196v191h494v-1347h-494z" />
<glyph unicode="^" horiz-adv-x="831" d="M117 826v145l300 376l299 -376v-145h-115v64l-184 231l-186 -231v-64h-114z" />
<glyph unicode="_" horiz-adv-x="952" d="M-17 -70h987v-159h-987v159z" />
<glyph unicode="`" horiz-adv-x="374" d="M118 1247h132l92 -219h-133z" />
<glyph unicode="a" horiz-adv-x="944" d="M-6 211v220q0 175 214 175l276 -1v219q0 49 -42 49h-110q-48 0 -48 -45v-141h-290v127q0 200 246 200h315q218 0 218 -206v-617h75v-191h-634q-105 0 -165 64q-55 58 -55 147zM-6 1156v191h964v-191h-964zM284 199q0 -60 59 -60h141v355h-144q-56 0 -56 -50v-245z" />
<glyph unicode="b" horiz-adv-x="1021" d="M0 0v191h83v965h-83v191h371v-333h300q248 0 248 -209v-582q0 -223 -242 -223h-677zM371 193q0 -54 53 -54h149q56 0 56 55v619q0 60 -52 60l-157 1q-49 0 -49 -59v-622zM466 1156v191h565v-191h-565z" />
<glyph unicode="c" d="M0 223v582q0 105 78 161q67 48 170 48h347q242 0 242 -223v-110h-290v134q0 59 -48 59l-157 -1q-52 0 -52 -60v-619q0 -55 56 -55h149q52 0 52 57v136h290v-125q0 -96 -68 -151.5t-186 -55.5h-341q-119 0 -182 63q-60 58 -60 160zM0 1156v191h950v-191h-950z" />
<glyph unicode="d" horiz-adv-x="1001" d="M0 223v582q0 105 78 161q67 48 170 48h300v142h-83v191h372v-1156h84v-191h-679q-119 0 -182 63q-60 58 -60 160zM0 1156v191h372v-191h-372zM321 194q0 -55 56 -55h149q53 0 53 54v622q0 59 -49 59l-157 -1q-52 0 -52 -60v-619z" />
<glyph unicode="e" horiz-adv-x="936" d="M0 223v582q0 105 78 161q67 48 170 48h347q242 0 242 -215v-371h-547v-234q0 -55 56 -55h149q52 0 52 57v136h290v-125q0 -96 -69 -151.5t-185 -55.5h-341q-119 0 -182 63q-60 58 -60 160zM0 1156v191h951v-191h-951zM290 543h257v272q0 59 -48 59l-157 -1q-52 0 -52 -60 v-270z" />
<glyph unicode="f" horiz-adv-x="899" d="M0 0v191h96l-1 432h-95v170h95v330q0 103 60 161q63 63 182 63h232q116 0 185 -56t69 -151v-345h-264v305q0 57 -49 57h-77q-57 0 -57 -54v-310h98v-170h-98v-432h93v-191h-469z" />
<glyph unicode="g" horiz-adv-x="1006" d="M0 1156v191h1024v-191h-1024zM2 -87h289v-152q0 -57 53 -57h149q56 0 56 55v241h-305q-119 0 -183 63q-59 58 -59 160v582q0 106 77 161q67 48 170 48h673v-170h-83v-1056q0 -223 -242 -223h-342q-119 0 -186 55.5t-67 151.5v141zM291 194q0 -55 57 -55h149q52 0 52 57 v619q0 59 -49 59l-156 -1q-53 0 -53 -60v-619z" />
<glyph unicode="h" horiz-adv-x="987" d="M0 0v191h96v965h-96v191h376v-477q44 47 126 91q102 54 188 54q85 0 134.5 -45.5t49.5 -121.5v-848h-293v791q0 20 -3 25.5t-13 5.5q-28 0 -104 -65q-55 -47 -85 -97v-469h93v-191h-469zM472 1156v191h530v-191h-530z" />
<glyph unicode="i" horiz-adv-x="633" d="M63 1247q0 42 69.5 71t172.5 29q104 0 175 -29t71 -71q0 -41 -70 -70t-176 -29q-103 0 -172.5 29t-69.5 70zM67 0v191h96v653h-96v170h477v-170h-93v-653h93l1 -191h-478z" />
<glyph unicode="j" horiz-adv-x="630" d="M-311 -87h290v-101q0 -57 49 -57h77q56 0 56 54l1 1035h-96v170h477v-170h-93v-1056q0 -223 -240 -223h-267q-117 0 -185.5 55.5t-68.5 151.5v141zM62 1247q0 42 69.5 71t172.5 29q104 0 175 -29t71 -71q0 -41 -70 -70t-176 -29q-103 0 -172.5 29t-69.5 70z" />
<glyph unicode="k" horiz-adv-x="1104" d="M0 0v191h96v965h-96v191h385v-798l297 295h-156v170h488v-169l-107 -1l-294 -292l291 -361h110v-191h-451v191h133l-197 249l-114 -114l-1 -135h94v-191h-478zM478 1156v191h643v-191h-643z" />
<glyph unicode="l" horiz-adv-x="556" d="M0 0v191h96v965h-96v191h385l-1 -1156h94v-191h-478z" />
<glyph unicode="m" horiz-adv-x="1487" d="M0 0v191h96v653h-96v170h376v-144q44 47 126 91q102 54 188 54q163 0 183 -145q45 47 126 91q103 54 189 54q85 0 134.5 -45.5t49.5 -121.5v-848h-293v791q0 20 -3 25.5t-13 5.5q-28 0 -104 -65q-55 -47 -86 -97l1 -660h-293v791q0 20 -3 25.5t-13 5.5q-28 0 -104 -65 q-55 -47 -85 -97v-469h93v-191h-469zM0 1156v191h1502v-191h-1502z" />
<glyph unicode="n" horiz-adv-x="982" d="M0 0v191h96v653h-96v170h376v-144q42 46 125 90q103 55 189 55q85 0 134.5 -45.5t49.5 -121.5v-848h-293v791q0 20 -3 25.5t-13 5.5q-38 0 -115 -77q-52 -52 -74 -90v-464h93v-191h-469zM0 1156v191h997v-191h-997z" />
<glyph unicode="o" horiz-adv-x="943" d="M0 223v582q0 105 78 161q67 48 170 48h347q242 0 242 -223v-584q0 -96 -69 -151.5t-185 -55.5h-341q-119 0 -182 63q-60 58 -60 160zM0 1156v191h958v-191h-958zM290 194q0 -55 56 -55h149q52 0 52 57v619q0 59 -48 59l-157 -1q-52 0 -52 -60v-619z" />
<glyph unicode="p" horiz-adv-x="1027" d="M0 844v170h376v-144q129 144 305 144q123 0 188 -63q62 -59 62 -161v-582q0 -105 -78 -160q-67 -48 -170 -48h-300v-435h-382v191h94l1 1088h-96zM0 1156v191h1042v-191h-1042zM376 199q0 -59 49 -59h164q52 0 52 60v568q0 54 -60 54q-39 0 -112 -64q-60 -54 -93 -100 v-459z" />
<glyph unicode="q" horiz-adv-x="999" d="M0 1156v191h1014v-191h-1014zM1 208v582q0 102 61 161q66 63 189 63q216 0 305 -75v75h376v-170h-96l1 -1088h94v-191h-382v435h-300q-103 0 -170 48q-78 55 -78 160zM291 200q0 -60 52 -60h164q49 0 49 59v528q-25 31 -93.5 63t-112.5 32q-59 0 -59 -54v-568z" />
<glyph unicode="r" horiz-adv-x="944" d="M0 0v191h96v653h-96v170h376v-144q41 46 115 89q95 56 174 56q85 0 134.5 -45.5t49.5 -121.5v-386h-293v329q0 20 -3 25.5t-13 5.5q-26 0 -90 -67q-44 -45 -74 -95v-469h93v-191h-469zM0 1156v191h961v-191h-961z" />
<glyph unicode="s" d="M0 209v117h290v-126q0 -59 51 -59h150q56 0 56 55v75q0 90 -69 106l-324 74q-154 35 -154 199v141q0 102 60 161q64 62 183 62h340q117 0 185 -55t68 -152v-120h-288v130q0 58 -51 58h-151q-56 0 -56 -55v-94q0 -72 72 -88l304 -69q170 -38 170 -204v-142 q0 -223 -253 -223h-328q-120 0 -187.5 56t-67.5 153zM0 1156v191h950v-191h-950z" />
<glyph unicode="t" horiz-adv-x="893" d="M12 844v170h93v333h292v-333h409v-170h-410l1 -600q0 -54 56 -54h15q49 0 49 57v101h289v-141q0 -96 -68 -151.5t-185 -55.5h-205q-240 0 -240 223v621h-96zM517 1156v191h395v-191h-395z" />
<glyph unicode="u" horiz-adv-x="1054" d="M0 844v170h385v-820q0 -55 57 -55h149q53 0 53 54v651h-96v170h385v-791q0 -223 -236 -223h-352q-120 0 -184.5 61t-64.5 162v621h-96zM0 1156v191h1071v-191h-1071z" />
<glyph unicode="v" horiz-adv-x="1106" d="M0 844v170h502v-170h-103l158 -389l176 389h-105v170h373v-170h-84l-294 -653l142 -1v-190h-556v190h142l-263 654h-88zM0 1156v191h1123v-191h-1123z" />
<glyph unicode="w" horiz-adv-x="1730" d="M0 844v170h502v-170h-101l156 -389l176 389h-105v170h502v-170h-103l158 -389l176 389h-105v170h374v-170h-85l-294 -653l142 -1v-190h-555v190h141l-165 411h-5l-186 -410l142 -1v-190h-556v190h142l-263 654h-88zM0 1156v191h1749v-191h-1749z" />
<glyph unicode="x" horiz-adv-x="1225" d="M0 0v190h162l258 272l-292 382h-128v170h603v-170h-124l137 -179l169 179h-113v170h450v-170h-131l-283 -298l275 -356h139v-190h-603v190h109l-116 153l-146 -153h85v-190h-451zM0 1156v191h1255v-191h-1255z" />
<glyph unicode="y" horiz-adv-x="1054" d="M0 844v170h385v-820q0 -55 57 -55h149q53 0 53 54v651h-96v170h385v-1226q0 -223 -239 -223h-345q-116 0 -184.5 55.5t-68.5 151.5v141h289v-101q0 -57 49 -57h153q57 0 57 54v191h-306q-119 0 -183 63q-59 58 -59 160v621h-96zM0 1156v191h1071v-191h-1071z" />
<glyph unicode="z" horiz-adv-x="1016" d="M-6 0v191h73l408 653h-290v-206h-191v376h909v-170h-61l-406 -653h278v184h189v-375h-909zM-6 1156v191h1034v-191h-1034z" />
<glyph unicode="{" horiz-adv-x="780" d="M37 672q45 85 56 125q14 47 14 136v283q0 89 34 114q22 17 95 17h365v-191h-196v-221q0 -91 -12 -136t-58 -126q49 -74 60 -122q10 -39 10 -139v-221h196v-191h-365q-58 0 -84 15q-46 27 -46 108v288q0 94 -11 137t-58 124z" />
<glyph unicode="|" horiz-adv-x="806" d="M285 0v1348h247v-1348h-247z" />
<glyph unicode="}" horiz-adv-x="783" d="M153 0v191h196v221q0 100 9 139q12 48 60 122q-45 81 -57 126t-12 136v221h-196v191h365q72 0 95 -17q34 -25 34 -114v-283q0 -89 13 -136q12 -40 57 -125q-47 -81 -58 -124t-11 -137l-1 -288q0 -81 -45 -108q-26 -15 -84 -15h-365z" />
<glyph unicode="~" horiz-adv-x="934" d="M104 1158l268 137q149 -90 248 -96l183 96l69 -136l-246 -124q-130 3 -261 89l-192 -101z" />
<glyph unicode="&#xa1;" horiz-adv-x="746" d="M133 -140h135v904h298v-904h135v-190h-568v190zM229 926q0 41 53.5 70t133.5 29q81 0 135 -29t54 -70t-55 -70t-134 -29q-80 0 -133.5 29t-53.5 70z" />
<glyph unicode="&#xa2;" horiz-adv-x="820" d="M58 398v466q0 84 63 128q53 39 135 39h64v174h147v-174h67q194 0 194 -179v-87h-232v107q0 39 -29 45v-585q29 7 29 45v109h232v-101q0 -77 -54 -121t-149 -44h-58v-173h-147v173h-68q-194 0 -194 178zM290 375q0 -37 30 -43v585q-30 -6 -30 -47v-495z" />
<glyph unicode="&#xa3;" horiz-adv-x="1110" d="M0 0v191h196v376h-146v151h146v629h514q241 0 241 -215v-232h-263v200q0 57 -50 57l-144 -1v-438h147v-151h-147v-376h345v184h174v-375h-1013z" />
<glyph unicode="&#xa5;" horiz-adv-x="1330" d="M1 1156v191h568v-191h-117l275 -445l277 445h-123v191h467v-191h-135l-343 -555h100v-121h-145v-69h145v-121h-145v-99h196v-191h-690v191h195v99h-145v121h145l1 69h-146v121h100l-345 555h-135z" />
<glyph unicode="&#xa8;" horiz-adv-x="721" d="M72 1251q0 36 37.5 62t93.5 26t94.5 -26t38.5 -62q0 -37 -38 -63t-95 -26q-56 0 -93.5 26t-37.5 63zM401 1251q0 36 37.5 62t93.5 26t94.5 -26t38.5 -62q0 -37 -38 -63t-95 -26q-56 0 -93.5 26t-37.5 63z" />
<glyph unicode="&#xa9;" horiz-adv-x="1319" d="M81 240v882q0 114 84 174q72 51 183 51h597q260 0 260 -240l2 -867q0 -240 -265 -240h-600q-129 0 -197 67q-64 63 -64 173zM288 265q0 -59 61 -59h593q56 0 56 59v813q0 63 -52 63h-602q-56 0 -56 -64v-812zM349 477v407q0 74 55 113q47 33 119 33h243q169 0 169 -156 v-77h-203v94q0 41 -34 41h-109q-37 0 -37 -42v-434q0 -38 39 -38h105q36 0 36 40v95h203v-88q0 -144 -177 -144h-239q-170 0 -170 156z" />
<glyph unicode="&#xad;" horiz-adv-x="893" d="M80 550v159h623v-159h-623z" />
<glyph unicode="&#xae;" horiz-adv-x="1319" d="M81 240v882q0 114 84 174q72 51 183 51h597q260 0 260 -240l2 -867q0 -240 -265 -240h-600q-129 0 -197 67q-64 63 -64 173zM288 265q0 -59 61 -59h593q56 0 56 59v813q0 63 -52 63h-602q-56 0 -56 -64v-812zM342 305v105h108v531h-108v105h459q133 0 133 -123v-159 q0 -112 -71 -124v-3q72 0 72 -86v-246h-161v253q0 54 -57 55h-103v-203h107v-105h-379zM614 719h104q53 0 53 62v128q0 32 -32 32h-125v-222z" />
<glyph unicode="&#xaf;" horiz-adv-x="869" d="M112 1188v159h623v-159h-623z" />
<glyph unicode="&#xb0;" horiz-adv-x="474" d="M110 1164q0 66 42 106q37 36 87 36t88 -35q43 -41 43 -107q0 -67 -42 -107q-38 -36 -89 -36q-50 0 -87 36q-42 40 -42 107zM172 1165q0 -20 15 -42q20 -29 54 -29q28 0 49 21.5t21 49.5q0 20 -15 42q-21 29 -55 29q-35 0 -54 -29q-15 -22 -15 -42z" />
<glyph unicode="&#xb1;" horiz-adv-x="952" d="M156 71v160h623v-160h-623zM156 550v159h232v232h159v-232h232v-159h-232v-232h-159v232h-232z" />
<glyph unicode="&#xb4;" horiz-adv-x="374" d="M118 1028l91 219h133l-92 -219h-132z" />
<glyph unicode="&#xb7;" horiz-adv-x="474" d="M62 675q0 41 47 70t117 29t118 -29t48 -70t-47.5 -69.5t-118.5 -28.5q-70 0 -117 28.5t-47 69.5z" />
<glyph unicode="&#xb8;" horiz-adv-x="614" d="M77 -173h160v-27q0 -40 34 -40h55q39 0 39 38v252h178v-267q0 -156 -168 -156h-120q-82 0 -130 39t-48 106v55z" />
<glyph unicode="&#xbc;" horiz-adv-x="1108" d="M15 613v97h100v445h-100v98l252 -1l1 -542h100v-97h-353zM120 0l656 1252h148l-656 -1252h-148zM585 210v97l135 236h-73v97h349l1 -542h87v-98h-327v98h87v112h-259zM705 307h139v236h-4z" />
<glyph unicode="&#xbd;" horiz-adv-x="1061" d="M0 613v97h100v445h-100v98l252 -1l1 -542h100v-97h-353zM81 0l655 1252h148l-655 -1252h-148zM577 0v164q0 54 55 106l173 162q39 37 39 54v28q0 29 -29 29h-61q-26 0 -26 -30v-102h-151v123q0 106 129 106h166q124 0 124 -114v-75q0 -41 -19 -66q-3 -4 -41 -40 l-172 -161q-35 -33 -35 -54v-32h89q26 0 26 30v101h152v-123q0 -106 -130 -106h-289z" />
<glyph unicode="&#xbe;" horiz-adv-x="1146" d="M0 613v97h238q27 0 27 30l1 81q0 63 -54 63h-93v98h93q53 0 53 66v77q0 30 -25 30h-143v-94h-97v191h294q123 0 123 -114v-101q0 -80 -75 -104v-1q75 -22 75 -105v-109q0 -105 -129 -105h-288zM134 0l656 1252h148l-656 -1252h-148zM599 210v97l135 236h-72v97h348 l1 -542h87v-98h-327v98h87v112h-259zM719 307h139v236h-4z" />
<glyph unicode="&#xbf;" horiz-adv-x="953" d="M33 -14v68q0 61 16 98q9 22 45 75l270 390q61 90 61 143v26h305v-41q0 -80 -30 -142q-10 -19 -63 -96l-266 -382q-41 -60 -41 -99v-17q0 -55 56 -55h120q51 0 51 58v199h296v-240q0 -96 -68 -152t-186 -56h-324q-242 0 -242 223zM412 924q0 41 47.5 69.5t118.5 28.5 q70 0 116.5 -28.5t46.5 -69.5q0 -42 -46.5 -70.5t-116.5 -28.5t-118 28.5t-48 70.5z" />
<glyph unicode="&#xc0;" horiz-adv-x="1327" d="M0 0v191h135l391 965h-196v191h1012v-191h-588l389 -965h136v-191h-573v191h135l-61 152h-355l-61 -152h134l1 -191h-499zM447 1600h133l91 -219h-132zM503 534h198l-98 246z" />
<glyph unicode="&#xc1;" horiz-adv-x="1327" d="M0 0v191h135l391 965h-196v191h1012v-191h-588l389 -965h136v-191h-573v191h135l-61 152h-355l-61 -152h134l1 -191h-499zM503 534h198l-98 246zM615 1379l92 219h132l-91 -219h-133z" />
<glyph unicode="&#xc2;" horiz-adv-x="1327" d="M0 0v191h135l391 965h-196v191h1012v-191h-588l389 -965h136v-191h-573v191h135l-61 152h-355l-61 -152h134l1 -191h-499zM457 1450l188 144l185 -144l-75 -68l-110 84l-110 -84zM503 534h198l-98 246z" />
<glyph unicode="&#xc3;" horiz-adv-x="1327" d="M0 0v191h135l391 965h-196v191h1012v-191h-588l389 -965h136v-191h-573v191h135l-61 152h-355l-61 -152h134l1 -191h-499zM417 1477l170 107q96 -70 159 -75l117 75l44 -106l-158 -97q-82 2 -166 69l-122 -79zM503 534h198l-98 246z" />
<glyph unicode="&#xc4;" horiz-adv-x="1327" d="M0 0v191h135l391 965h-196v191h1012v-191h-588l389 -965h136v-191h-573v191h135l-61 152h-355l-61 -152h134l1 -191h-499zM350 1462q0 37 37.5 63t93.5 26t94.5 -26t38.5 -63t-38 -62.5t-95 -25.5q-56 0 -93.5 25.5t-37.5 62.5zM503 534h198l-98 246zM679 1462 q0 37 37.5 63t93.5 26t94.5 -26t38.5 -63t-37.5 -62.5t-95.5 -25.5q-56 0 -93.5 25.5t-37.5 62.5z" />
<glyph unicode="&#xc5;" horiz-adv-x="1327" d="M0 0v191h135l391 965h-196v191h1012v-191h-588l389 -965h136v-191h-573v191h135l-61 152h-355l-61 -152h134l1 -191h-499zM503 534h198l-98 246zM517 1479q0 54 40 86q36 28 84 28t85 -28q41 -32 41 -86q0 -53 -40 -85q-36 -29 -86 -29q-48 0 -84 29q-40 32 -40 85z M573 1480q0 -16 15 -33q20 -23 54 -23q26 0 48.5 16t22.5 40q0 16 -16 34q-20 23 -55 23q-34 0 -54 -23q-15 -17 -15 -34z" />
<glyph unicode="&#xc6;" horiz-adv-x="1761" d="M0 0v191h135l542 965h-173v191h1274v-191h-638v-381h93v90h143v-358h-143v86h-93v-402h341v184h190l-1 -375h-972v191h143v152h-347l-87 -152h135v-191h-542zM604 534h237v427z" />
<glyph unicode="&#xc7;" horiz-adv-x="1115" d="M109 223v915q0 106 77 161q67 48 170 48h777v-191h-675q-52 0 -52 -60v-850q0 -55 56 -55h222q51 0 51 58v199h297v-240q0 -96 -68.5 -152t-184.5 -56h-428q-242 0 -242 223zM312 -201h160v-27q0 -40 34 -40h55q39 0 39 38v252h178v-267q0 -156 -168 -156h-121 q-81 0 -129 39t-48 106v55z" />
<glyph unicode="&#xc8;" horiz-adv-x="1224" d="M109 0v191h196v965h-196v191h1133v-191h-639v-381h94v90h142v-358h-142v86h-94v-402h341l1 184h189v-375h-1025zM482 1600h133l91 -219h-132z" />
<glyph unicode="&#xc9;" horiz-adv-x="1224" d="M109 0v191h196v965h-196v191h1133v-191h-639v-381h94v90h142v-358h-142v86h-94v-402h341l1 184h189v-375h-1025zM598 1379l92 219h132l-91 -219h-133z" />
<glyph unicode="&#xca;" horiz-adv-x="1224" d="M109 0v191h196v965h-196v191h1133v-191h-639v-381h93v90h143v-358h-143v86h-93v-402h341v184h190v-375h-1025zM474 1450l188 144l185 -144l-74 -68l-111 84l-110 -84z" />
<glyph unicode="&#xcb;" horiz-adv-x="1224" d="M109 0v191h196v965h-196v191h1133v-191h-639v-381h94v90h142v-358h-142v86h-94v-402h341l1 184h189v-375h-1025zM359 1462q0 37 37.5 63t93.5 26t94.5 -26t38.5 -63t-38 -62.5t-95 -25.5q-56 0 -93.5 25.5t-37.5 62.5zM688 1462q0 37 37.5 63t93.5 26t94.5 -26t38.5 -63 t-37.5 -62.5t-95.5 -25.5q-56 0 -93.5 25.5t-37.5 62.5z" />
<glyph unicode="&#xcc;" horiz-adv-x="884" d="M107 0v191h196v965h-196v191h690v-191h-196v-965h196v-191h-690zM282 1600h133l91 -219h-133z" />
<glyph unicode="&#xcd;" horiz-adv-x="884" d="M107 0v191h196v965h-196v191h690v-191h-196v-965h196v-191h-690zM372 1379l91 219h133l-91 -219h-133z" />
<glyph unicode="&#xce;" horiz-adv-x="884" d="M107 0v191h196v965h-196v191h690v-191h-196v-965h196v-191h-690zM264 1450l187 144l186 -144l-75 -68l-111 84l-109 -84z" />
<glyph unicode="&#xcf;" horiz-adv-x="884" d="M107 0v191h196v965h-196v191h690v-191h-196v-965h196v-191h-690zM158 1462q0 37 37.5 63t93.5 26t94.5 -26t38.5 -63t-38 -62.5t-95 -25.5q-56 0 -93.5 25.5t-37.5 62.5zM487 1462q0 37 37.5 63t93.5 26t94.5 -26t38.5 -63t-38 -62.5t-95 -25.5q-56 0 -93.5 25.5 t-37.5 62.5z" />
<glyph unicode="&#xd0;" horiz-adv-x="1167" d="M0 0v191h196v387h-196v190h196v388h-196v191h835q242 0 242 -223v-917q0 -96 -68 -151.5t-186 -55.5h-823zM494 191h233q53 0 53 57v850q0 58 -49 58h-237v-388h225v-190h-225v-387z" />
<glyph unicode="&#xd1;" horiz-adv-x="1426" d="M0 0v191h195v965h-195v191h455l400 -642l5 -1v452h-161v191h744v-191h-285v-964l178 -1v-191h-637v191h161l-361 584h-6v-584h153v-191h-646zM451 1477l171 107q95 -70 159 -75l117 75l44 -106l-158 -97q-83 2 -166 69l-123 -79z" />
<glyph unicode="&#xd2;" horiz-adv-x="1130" d="M109 223v915q0 106 78 161q67 48 170 48h434q242 0 242 -223v-917q0 -96 -68.5 -151.5t-185.5 -55.5h-428q-119 0 -182 62q-60 59 -60 161zM395 1600h133l91 -219h-133zM406 246q0 -55 56 -55h222q52 0 52 57v850q0 58 -48 58h-230q-52 0 -52 -60v-850z" />
<glyph unicode="&#xd3;" horiz-adv-x="1130" d="M109 223v915q0 106 78 161q67 48 170 48h434q242 0 242 -223v-917q0 -96 -68.5 -151.5t-184.5 -55.5h-429q-119 0 -182 62q-60 59 -60 161zM406 246q0 -55 56 -55h222q53 0 53 57v850q0 58 -49 58h-230q-52 0 -52 -60v-850zM503 1379l91 219h133l-92 -219h-132z" />
<glyph unicode="&#xd4;" horiz-adv-x="1130" d="M109 223v915q0 106 78 161q67 48 170 48h434q242 0 242 -223v-917q0 -96 -68.5 -151.5t-185.5 -55.5h-428q-119 0 -182 62q-60 59 -60 161zM385 1450l188 144l186 -144l-75 -68l-111 84l-109 -84zM406 246q0 -55 56 -55h222q52 0 52 57v850q0 58 -48 58h-230 q-52 0 -52 -60v-850z" />
<glyph unicode="&#xd5;" horiz-adv-x="1130" d="M109 223v915q0 106 78 161q67 48 170 48h434q242 0 242 -223v-917q0 -96 -68.5 -151.5t-185.5 -55.5h-428q-119 0 -182 62q-60 59 -60 161zM321 1477l171 107q95 -70 158 -75l117 75l44 -106l-157 -97q-83 2 -166 69l-123 -79zM406 246q0 -55 56 -55h222q52 0 52 57v850 q0 58 -48 58h-230q-52 0 -52 -60v-850z" />
<glyph unicode="&#xd6;" horiz-adv-x="1130" d="M109 223v915q0 106 78 161q67 48 170 48h434q242 0 242 -223v-917q0 -96 -68.5 -151.5t-185.5 -55.5h-428q-119 0 -182 62q-60 59 -60 161zM266 1462q0 37 38 63t93 26q56 0 95 -26t39 -63t-38 -62.5t-96 -25.5q-55 0 -93 25.5t-38 62.5zM406 246q0 -55 56 -55h222 q52 0 52 57v850q0 58 -48 58h-230q-52 0 -52 -60v-850zM596 1462q0 37 37.5 63t93.5 26t94.5 -26t38.5 -63t-38 -62.5t-95 -25.5q-56 0 -93.5 25.5t-37.5 62.5z" />
<glyph unicode="&#xd7;" horiz-adv-x="813" d="M70 463l164 164l-164 164l113 113l164 -164l163 164l113 -113l-164 -164l164 -164l-113 -112l-163 164l-164 -164z" />
<glyph unicode="&#xd8;" horiz-adv-x="1130" d="M-4 -77l127 211q-14 40 -14 89v915q0 106 78 161q66 48 169 48h435q31 0 58 -4l109 182l108 -65l-100 -167q67 -59 67 -169v-917q0 -96 -69 -151.5t-185 -55.5h-428q-85 0 -142 32l-105 -174zM405 246q0 -55 57 -55h222q52 0 52 57v663l-331 -551v-114zM405 604l321 533 q-13 19 -38 19h-230q-53 0 -53 -60v-492z" />
<glyph unicode="&#xd9;" horiz-adv-x="1162" d="M0 1156v191h573v-191h-137v-907q0 -58 51 -58h213q57 0 57 55v910h-140v191h577v-191h-139v-933q0 -102 -60 -161q-63 -62 -182 -62h-421q-117 0 -185.5 56t-68.5 152l1 948h-139zM404 1600h132l92 -219h-133z" />
<glyph unicode="&#xda;" horiz-adv-x="1162" d="M0 1156v191h573v-191h-137v-907q0 -58 51 -58h213q57 0 57 55v910h-140v191h577v-191h-139v-933q0 -102 -60 -161q-63 -62 -182 -62h-421q-117 0 -185.5 56t-68.5 152l1 948h-139zM511 1379l91 219h133l-91 -219h-133z" />
<glyph unicode="&#xdb;" horiz-adv-x="1162" d="M0 1156v191h573v-191h-137v-907q0 -58 51 -58h213q57 0 57 55v910h-140v191h577v-191h-139v-933q0 -102 -60 -161q-63 -62 -182 -62h-421q-117 0 -185.5 56t-68.5 152l1 948h-139zM404 1450l188 144l186 -144l-75 -68l-111 84l-109 -84z" />
<glyph unicode="&#xdc;" horiz-adv-x="1162" d="M0 1156v191h573v-191h-137v-907q0 -58 51 -58h213q57 0 57 55v910h-140v191h577v-191h-139v-933q0 -102 -60 -161q-63 -62 -182 -62h-421q-117 0 -185.5 56t-68.5 152l1 948h-139zM297 1462q0 37 37.5 63t93.5 26t94.5 -26t38.5 -63t-38 -62.5t-95 -25.5 q-56 0 -93.5 25.5t-37.5 62.5zM626 1462q0 37 37.5 63t93.5 26t94.5 -26t38.5 -63t-37.5 -62.5t-95.5 -25.5q-56 0 -93.5 25.5t-37.5 62.5z" />
<glyph unicode="&#xdd;" horiz-adv-x="1330" d="M1 1156v191h568v-191h-117l275 -445l277 445h-123v191h467v-191h-135l-388 -628v-337h196v-191h-690v191h196v337l-391 628h-135zM624 1379l91 219h133l-91 -219h-133z" />
<glyph unicode="&#xde;" horiz-adv-x="1175" d="M0 0v191h196v1045h-196v191h494v-246h341q242 0 242 -223v-243q0 -153 -54 -216q-57 -67 -197 -67h-332v-241h196v-191h-690zM494 624h190q61 0 82 34q14 22 14 79v195q0 58 -58 58h-228v-366z" />
<glyph unicode="&#xdf;" horiz-adv-x="1168" d="M0 0v191h196v965h-196v191h835q242 0 242 -223v-246q0 -157 -148 -204v-1q148 -43 148 -205v-261q0 -207 -217 -207q-202 0 -202 199q121 0 122 109v148q1 41 -54 97.5t-55 120.5q0 50 54.5 111.5t54.5 114.5v198q0 58 -49 58h-237v-1156h-494z" />
<glyph unicode="&#xe0;" horiz-adv-x="947" d="M0 211v220q0 175 214 175l276 -1v219q0 49 -42 49h-110q-48 0 -48 -45v-141h-290v127q0 200 246 200h315q218 0 218 -206v-617h75v-191l-634 -1q-105 0 -165 64q-55 59 -55 148zM0 1156v191h136l71 -191h-207zM232 1347h133l92 -219h-133zM290 199q0 -60 59 -60h141v355 h-144q-56 0 -56 -50v-245zM470 1347h494v-191h-416z" />
<glyph unicode="&#xe1;" horiz-adv-x="947" d="M0 211v220q0 175 214 175l276 -1v219q0 49 -42 49h-110q-48 0 -48 -45v-141h-290v127q0 200 246 200h315q218 0 218 -206v-617h75v-191h-634q-105 0 -165 64q-55 58 -55 147zM0 1156v191h311l-78 -191h-233zM290 199q0 -60 59 -60h141v355h-144q-56 0 -56 -50v-245z M322 1128l92 219h132l-91 -219h-133zM574 1156l72 191h318v-191h-390z" />
<glyph unicode="&#xe2;" horiz-adv-x="947" d="M0 211v220q0 175 214 175l276 -1v219q0 49 -42 49h-110q-48 0 -48 -45v-141h-290v127q0 200 246 200h315q218 0 218 -206v-617h75v-191h-634q-105 0 -165 64q-55 58 -55 147zM0 1156v191h172v-191h-172zM213 1203l188 145l185 -145l-75 -68l-110 85l-110 -85zM290 199 q0 -60 59 -60h141v355h-144q-56 0 -56 -50v-245zM626 1156v191h338v-191h-338z" />
<glyph unicode="&#xe3;" horiz-adv-x="947" d="M0 211v220q0 175 214 175l276 -1v219q0 49 -42 49h-110q-48 0 -48 -45v-141h-290v127q0 200 246 200h315q218 0 218 -206v-617h75v-191h-634q-105 0 -165 64q-55 58 -55 147zM0 1156v191h111v-191h-111zM155 1235l171 107q95 -70 159 -75l117 75l44 -106l-158 -98 q-82 3 -166 70l-123 -79zM290 199q0 -60 59 -60h141v355h-144q-56 0 -56 -50v-245zM687 1156v191h277v-191h-277z" />
<glyph unicode="&#xe4;" horiz-adv-x="947" d="M0 211v220q0 175 214 175l276 -1v219q0 49 -42 49h-110q-48 0 -48 -45v-141h-290v127q0 200 246 200h315q218 0 218 -206v-617h75v-191h-634q-105 0 -165 64q-55 58 -55 147zM0 1156v191h59v-191h-59zM98 1251q0 36 37.5 62t93.5 26t94.5 -26t38.5 -62q0 -37 -38 -63 t-95 -26q-56 0 -93.5 26t-37.5 63zM290 199q0 -60 59 -60h141v355h-144q-56 0 -56 -50v-245zM427 1251q0 36 37.5 62t93.5 26t94.5 -26t38.5 -62q0 -37 -38 -63t-95 -26q-56 0 -93.5 26t-37.5 63zM731 1156v191h233v-191h-233z" />
<glyph unicode="&#xe5;" horiz-adv-x="947" d="M0 211v220q0 175 214 175l276 -1v219q0 49 -42 49h-110q-48 0 -48 -45v-141h-290v127q0 200 246 200h315q218 0 218 -206v-617h75v-191h-634q-105 0 -165 64q-55 58 -55 147zM0 1156v191h207v-191h-207zM249 1247q0 70 49 112q43 36 102 36t103 -36q51 -42 51 -112 q0 -69 -50 -111q-44 -37 -104 -37q-59 0 -102 37q-49 42 -49 111zM290 199q0 -60 59 -60h141v355h-144q-56 0 -56 -50v-245zM316 1249q0 -21 19 -43q24 -30 66 -30q32 0 59.5 21t27.5 52q0 20 -19 43q-25 30 -68 30q-42 0 -66 -30q-19 -22 -19 -43zM595 1156v191h370v-191 h-370z" />
<glyph unicode="&#xe6;" horiz-adv-x="1422" d="M0 211v220q0 175 214 175l276 -1v219q0 49 -42 49h-110q-48 0 -48 -45v-141h-290v127q0 200 246 200h839q242 0 242 -215v-371h-547v-234q0 -55 56 -55h149q52 0 52 57v136h290v-125q0 -96 -68.5 -151.5t-185.5 -55.5l-853 -1q-105 0 -165 64q-55 59 -55 148zM0 1156v191 h1441v-191h-1441zM290 199q0 -60 59 -60h141v355h-144q-56 0 -56 -50v-245zM779 543h258v272q0 59 -48 59l-157 -1q-52 0 -52 -60z" />
<glyph unicode="&#xe7;" horiz-adv-x="932" d="M0 223v582q0 105 78 161q67 48 170 48h347q242 0 242 -223v-110h-290v134q0 59 -48 58h-157q-52 0 -52 -60v-619q0 -55 56 -55h149q52 0 52 57v136h290v-125q0 -96 -68 -151.5t-186 -55.5h-341q-119 0 -182 63q-60 58 -60 160zM0 1156v191h950v-191h-950zM120 -155h160 v-28q0 -40 34 -40h54q40 0 40 38v252h178v-266q0 -157 -169 -157h-120q-82 0 -129.5 39t-47.5 106v56z" />
<glyph unicode="&#xe8;" horiz-adv-x="932" d="M0 223v582q0 105 78 161q67 48 170 48h347q242 0 242 -215v-371h-547v-234q0 -55 56 -55h149q52 0 52 57v136h290v-125q0 -96 -69 -151.5t-185 -55.5h-341q-119 0 -182 63q-60 58 -60 160zM0 1156v191h137l70 -191h-207zM233 1347h132l92 -219h-133zM290 543h257v272 q0 59 -48 59l-157 -1q-52 0 -52 -60v-270zM470 1347h482v-191h-404z" />
<glyph unicode="&#xe9;" horiz-adv-x="932" d="M0 223v582q0 105 78 161q67 48 170 48h347q242 0 242 -215v-371h-547v-234q0 -55 56 -55h149q52 0 52 57v136h290v-125q0 -96 -69 -151.5t-185 -55.5h-341q-119 0 -182 63q-60 58 -60 160zM0 1156v191h346l-78 -191h-268zM290 543h257v272q0 59 -48 59l-157 -1 q-52 0 -52 -60v-270zM357 1128l91 219h133l-91 -219h-133zM609 1156l74 191h269v-191h-343z" />
<glyph unicode="&#xea;" horiz-adv-x="932" d="M0 223v582q0 105 78 161q67 48 170 48h347q242 0 242 -215v-371h-547v-234q0 -55 56 -55h149q52 0 52 57v136h290v-125q0 -96 -69 -151.5t-185 -55.5h-341q-119 0 -182 63q-60 58 -60 160zM0 1156v191h190v-191h-190zM230 1203l188 145l185 -145l-74 -68l-111 85 l-110 -85zM290 543h257v272q0 59 -48 59l-157 -1q-52 0 -52 -60v-270zM644 1156v191h307v-191h-307z" />
<glyph unicode="&#xeb;" horiz-adv-x="932" d="M0 223v582q0 105 78 161q67 48 170 48h347q242 0 242 -215v-371h-547v-234q0 -55 56 -55h149q52 0 52 57v136h290v-125q0 -96 -69 -151.5t-185 -55.5h-341q-119 0 -182 63q-60 58 -60 160zM0 1156v191h59v-191h-59zM98 1251q0 36 37.5 62t93.5 26t94.5 -26t38.5 -62 q0 -37 -38 -63t-95 -26q-56 0 -93.5 26t-37.5 63zM290 543h257v272q0 59 -48 59l-157 -1q-52 0 -52 -60v-270zM427 1251q0 36 37.5 62t93.5 26t94.5 -26t38.5 -62q0 -37 -38 -63t-95 -26q-56 0 -93.5 26t-37.5 63zM731 1156v191h220v-191h-220z" />
<glyph unicode="&#xec;" horiz-adv-x="633" d="M66 0v191h96v653h-96v170h478v-170h-94v-653h94v-191h-478zM142 1345h133l91 -219h-132z" />
<glyph unicode="&#xed;" horiz-adv-x="633" d="M66 0v191h96v653h-96v170h478v-170h-93v-653h93v-191h-478zM231 1126l91 219h133l-92 -219h-132z" />
<glyph unicode="&#xee;" horiz-adv-x="633" d="M66 0v191h96v653h-96v170h478v-170h-94v-653h94v-191h-478zM116 1203l188 145l185 -145l-75 -68l-111 84l-109 -84z" />
<glyph unicode="&#xef;" horiz-adv-x="633" d="M52 1250q0 37 32 63t80 26t81 -26t33 -63t-32.5 -63t-81.5 -26q-48 0 -80 26t-32 63zM66 0v191h96v653h-96v170h478v-170h-93v-653h93v-191h-478zM333 1250q0 37 32.5 63t79.5 26q48 0 81 -26t33 -63t-32.5 -63t-81.5 -26q-47 0 -79.5 26t-32.5 63z" />
<glyph unicode="&#xf1;" horiz-adv-x="980" d="M0 0v191h96v653h-96v170h376v-144q42 46 125 90q103 55 189 55q85 0 134.5 -45.5t49.5 -121.5v-848h-293v791q0 20 -3 25.5t-13 5.5q-38 0 -115 -77q-52 -52 -74 -90v-464h93v-191h-469zM0 1156v191h137v-191h-137zM182 1235l170 107q96 -70 159 -75l117 75l44 -106 l-158 -98q-82 3 -166 70l-122 -79zM713 1156v191h284v-191h-284z" />
<glyph unicode="&#xf2;" d="M0 223v582q0 105 78 161q67 48 170 48h347q242 0 242 -223v-584q0 -96 -69 -151.5t-185 -55.5h-341q-119 0 -182 63q-60 58 -60 160zM0 1156v191h137l70 -191h-207zM233 1347h132l92 -219h-133zM290 194q0 -55 56 -55h149q52 0 52 57v619q0 59 -48 59l-157 -1 q-52 0 -52 -60v-619zM470 1347h489v-191h-411z" />
<glyph unicode="&#xf3;" d="M0 223v582q0 105 78 161q67 48 170 48h347q242 0 242 -223v-584q0 -96 -68.5 -151.5t-185.5 -55.5h-341q-119 0 -182 63q-60 58 -60 160zM0 1156v191h356l-79 -191h-277zM290 202q0 -63 56 -63h149q52 0 52 57v619q0 59 -48 59l-157 -1q-52 0 -52 -60v-611zM368 1127 l91 219h133l-92 -219h-132zM618 1156l74 191h267v-191h-341z" />
<glyph unicode="&#xf4;" d="M0 223v582q0 105 78 161q67 48 170 48h347q242 0 242 -223v-584q0 -96 -69 -151.5t-185 -55.5h-341q-119 0 -182 63q-60 58 -60 160zM0 1156v191h190v-191h-190zM230 1203l188 145l185 -145l-74 -68l-111 85l-110 -85zM290 194q0 -55 56 -55h149q52 0 52 57v619 q0 59 -48 59l-157 -1q-52 0 -52 -60v-619zM644 1156v191h315v-191h-315z" />
<glyph unicode="&#xf5;" d="M0 223v582q0 105 78 161q67 48 170 48h347q242 0 242 -223v-584q0 -96 -69 -151.5t-185 -55.5h-341q-119 0 -182 63q-60 58 -60 160zM0 1156v191h120v-191h-120zM164 1244l171 106q95 -70 159 -75l117 75l44 -106l-158 -97q-83 2 -166 70l-123 -79zM290 194q0 -55 56 -55 h149q52 0 52 57v619q0 59 -48 59l-157 -1q-52 0 -52 -60v-619zM696 1156v191h263v-191h-263z" />
<glyph unicode="&#xf6;" d="M0 223v582q0 105 78 161q67 48 170 48h347q242 0 242 -223v-584q0 -96 -69 -151.5t-185 -55.5h-341q-119 0 -182 63q-60 58 -60 160zM0 1156v191h82v-191h-82zM120 1251q0 36 37.5 62t93.5 26t94.5 -26t38.5 -62q0 -37 -37.5 -63t-95.5 -26q-56 0 -93.5 26t-37.5 63z M290 194q0 -55 56 -55h149q52 0 52 57v619q0 59 -48 59l-157 -1q-52 0 -52 -60v-619zM450 1251q0 36 37.5 62t93.5 26t94.5 -26t38.5 -62q0 -37 -38 -63t-95 -26q-56 0 -93.5 26t-37.5 63zM753 1156v191h205v-191h-205z" />
<glyph unicode="&#xf7;" horiz-adv-x="923" d="M70 550v159h663v-159h-663zM238 377q0 41 47 70t116 29q70 0 118 -29t48 -70t-47 -70t-119 -29q-69 0 -116 29t-47 70zM238 877q0 41 47 70t116 29q70 0 118 -29t48 -70t-47 -70t-119 -29q-69 0 -116 29t-47 70z" />
<glyph unicode="&#xf8;" d="M-4 -77l77 127q-73 60 -73 173v582q0 105 78 161q67 48 170 48h347q29 0 54 -4l90 150l108 -65l-80 -133q70 -59 70 -171v-584q0 -96 -69 -151.5t-185 -55.5h-341q-27 0 -51 3l-87 -145zM290 411l255 425q-9 38 -46 38l-157 -1q-52 0 -52 -60v-402zM292 171q8 -32 54 -32 h149q52 0 52 57v400z" />
<glyph unicode="&#xf9;" horiz-adv-x="1054" d="M0 844v170h385v-820q0 -55 57 -55h149q53 0 53 54v651h-96v170h385v-791q0 -223 -236 -223h-352q-120 0 -184.5 61t-64.5 162v621h-96zM0 1156v191h224l70 -191h-294zM319 1347h133l91 -219h-133zM557 1347h515v-191h-437z" />
<glyph unicode="&#xfa;" horiz-adv-x="1054" d="M0 844v170h385v-820q0 -55 57 -55h149q53 0 53 54v651h-96v170h385v-791q0 -223 -236 -223h-352q-120 0 -184.5 61t-64.5 162v621h-96zM0 1156v191h412l-78 -191h-334zM425 1128l91 219h133l-91 -219h-133zM675 1156l72 191h325v-191h-397z" />
<glyph unicode="&#xfb;" horiz-adv-x="1054" d="M0 844v170h385v-820q0 -55 57 -55h149q53 0 53 54v651h-96v170h385v-791q0 -223 -236 -223h-352q-120 0 -184.5 61t-64.5 162v621h-96zM0 1156v191h266v-191h-266zM307 1203l188 145l185 -145l-75 -68l-110 85l-110 -85zM720 1156v191h352v-191h-352z" />
<glyph unicode="&#xfc;" horiz-adv-x="1054" d="M0 844v170h385v-820q0 -55 57 -55h149q53 0 53 54v651h-96v170h385v-791q0 -223 -236 -223h-352q-120 0 -184.5 61t-64.5 162v621h-96zM0 1156v191h129v-191h-129zM167 1251q0 36 37.5 62t93.5 26t94.5 -26t38.5 -62q0 -37 -37.5 -63t-95.5 -26q-56 0 -93.5 26t-37.5 63z M531 1251q0 36 38 62t93 26q56 0 95 -26t39 -62q0 -37 -38 -63t-96 -26q-55 0 -93 26t-38 63zM835 1156v191h236v-191h-236z" />
<glyph unicode="&#xfd;" horiz-adv-x="1054" d="M0 844v170h385v-820q0 -55 57 -55h149q53 0 53 54v651h-96v170h385v-1226q0 -223 -239 -223h-345q-116 0 -184.5 55.5t-68.5 151.5v141h289v-101q0 -57 49 -57h153q57 0 57 54v191h-306q-119 0 -183 63q-59 58 -59 160v621h-96zM0 1156v191h410l-79 -191h-331zM421 1128 l92 219h133l-92 -219h-133zM673 1156l72 191h326v-191h-398z" />
<glyph unicode="&#xfe;" horiz-adv-x="1025" d="M0 1135v170h376v-435q129 144 305 144q123 0 188 -63q62 -59 62 -161v-582q0 -105 -78 -160q-67 -48 -170 -48h-300v-435h-382v191h94l1 1379h-96zM376 199q0 -59 49 -59h164q52 0 52 60v568q0 54 -60 54q-39 0 -112 -64q-60 -54 -93 -100v-459z" />
<glyph unicode="&#xff;" horiz-adv-x="1054" d="M0 844v170h385v-820q0 -55 57 -55h149q53 0 53 54v651h-96v170h385v-1226q0 -223 -239 -223h-345q-116 0 -184.5 55.5t-68.5 151.5v141h289v-101q0 -57 49 -57h153q57 0 57 54v191h-306q-119 0 -183 63q-59 58 -59 160v621h-96zM0 1156v191h129v-191h-129zM167 1251 q0 36 37.5 62t93.5 26t94.5 -26t38.5 -62q0 -37 -37.5 -63t-95.5 -26q-56 0 -93.5 26t-37.5 63zM531 1251q0 36 38 62t93 26q56 0 95 -26t39 -62q0 -37 -38 -63t-96 -26q-55 0 -93 26t-38 63zM835 1156v191h236v-191h-236z" />
<glyph unicode="&#x178;" horiz-adv-x="1330" d="M1 1156v191h568v-191h-117l275 -445l277 445h-123v191h467v-191h-135l-388 -628v-337h196v-191h-690v191h196v337l-391 628h-135zM412 1464q0 37 37.5 62.5t93.5 25.5t94.5 -25.5t38.5 -62.5t-38 -62.5t-95 -25.5q-56 0 -93.5 25.5t-37.5 62.5zM741 1464q0 37 37.5 62.5 t93.5 25.5t94.5 -25.5t38.5 -62.5t-37.5 -62.5t-95.5 -25.5q-56 0 -93.5 25.5t-37.5 62.5z" />
<glyph unicode="&#x2c6;" horiz-adv-x="525" d="M89 1168l188 145l185 -145l-74 -67l-111 84l-110 -84z" />
<glyph unicode="&#x2dc;" horiz-adv-x="615" d="M60 1191l171 107q95 -70 158 -75l117 75l44 -106l-157 -97q-83 2 -167 69l-122 -79z" />
<glyph unicode="&#x2000;" horiz-adv-x="800" />
<glyph unicode="&#x2001;" horiz-adv-x="1600" />
<glyph unicode="&#x2002;" horiz-adv-x="800" />
<glyph unicode="&#x2003;" horiz-adv-x="1600" />
<glyph unicode="&#x2004;" horiz-adv-x="533" />
<glyph unicode="&#x2005;" horiz-adv-x="400" />
<glyph unicode="&#x2006;" horiz-adv-x="266" />
<glyph unicode="&#x2007;" horiz-adv-x="266" />
<glyph unicode="&#x2008;" horiz-adv-x="200" />
<glyph unicode="&#x2009;" horiz-adv-x="320" />
<glyph unicode="&#x200a;" horiz-adv-x="88" />
<glyph unicode="&#x2010;" horiz-adv-x="893" d="M80 550v159h623v-159h-623z" />
<glyph unicode="&#x2011;" horiz-adv-x="893" d="M80 550v159h623v-159h-623z" />
<glyph unicode="&#x2012;" horiz-adv-x="893" d="M80 550v159h623v-159h-623z" />
<glyph unicode="&#x2013;" horiz-adv-x="1294" d="M80 550v159h1024v-159h-1024z" />
<glyph unicode="&#x2014;" horiz-adv-x="2318" d="M80 550v159h2048v-159h-2048z" />
<glyph unicode="&#x2018;" horiz-adv-x="462" d="M50 972l100 375h190l-100 -375h-190z" />
<glyph unicode="&#x2019;" horiz-adv-x="462" d="M50 972l100 375h190l-100 -375h-190z" />
<glyph unicode="&#x201a;" horiz-adv-x="437" d="M50 -187l100 375h190l-100 -375h-190z" />
<glyph unicode="&#x201c;" horiz-adv-x="707" d="M50 972l100 375h190l-100 -375h-190zM330 972l100 375h190l-100 -375h-190z" />
<glyph unicode="&#x201d;" horiz-adv-x="707" d="M50 972l100 375h190l-100 -375h-190zM330 972l100 375h190l-100 -375h-190z" />
<glyph unicode="&#x201e;" horiz-adv-x="652" d="M50 -187l100 375h190l-100 -375h-190zM330 -187l100 375h190l-100 -375h-190z" />
<glyph unicode="&#x2026;" horiz-adv-x="1190" d="M62 91q0 41 47 69.5t117 28.5t118 -28.5t48 -69.5q0 -42 -47.5 -70.5t-118.5 -28.5q-70 0 -117 29t-47 70zM428 91q0 41 46.5 69.5t116.5 28.5t118 -28.5t48 -69.5q0 -42 -47 -70.5t-119 -28.5q-69 0 -116 29t-47 70zM793 91q0 41 47 69.5t117 28.5q69 0 117 -28.5 t48 -69.5q0 -42 -47 -70.5t-118 -28.5q-70 0 -117 29t-47 70z" />
<glyph unicode="&#x202f;" horiz-adv-x="320" />
<glyph unicode="&#x205f;" horiz-adv-x="400" />
<glyph unicode="&#x20ac;" horiz-adv-x="1120" d="M4 443v159h107v138h-107v160h107v238q0 106 78 162q67 47 170 47h422q117 0 185.5 -56t68.5 -151v-240h-298v199q0 57 -50 57h-227q-52 0 -52 -60v-196h219v-160h-219v-138h219v-159h-219v-197q0 -55 56 -55h222q51 0 51 58v199h298v-240q0 -96 -68.5 -152t-185.5 -56 h-427q-243 0 -243 223v220h-107z" />
<glyph unicode="&#x2122;" horiz-adv-x="1636" d="M77 808v206h612v-206h-96l1 101h-128v-531h108v-105h-380l1 105h107v531h-129v-101h-96zM735 273v105h107v531h-107v105h348v-105h-64l133 -268h2l144 268h-64v105h326v-105h-98v-531h99v-105h-370v105h107v292h-3l-175 -321l-159 321h-3v-292h108v-105h-331z" />
<glyph unicode="&#xe000;" horiz-adv-x="1345" d="M0 0v1345h1345v-1345h-1345z" />
</font>
</defs>
</svg>
